Coordinates
version=1
nRows=13
nColumns=38
inDegrees=no

Units are S.I. units (second, meters, Newtons, ...)
If the header above contains a line with 'inDegrees', this indicates whether rotational values are in degrees (yes) or radians (no).

endheader
time	pelvis_tilt	pelvis_list	pelvis_rotation	pelvis_tx	pelvis_ty	pelvis_tz	hip_flexion_r	hip_adduction_r	hip_rotation_r	knee_angle_r	ankle_angle_r	subtalar_angle_r	mtp_angle_r	hip_flexion_l	hip_adduction_l	hip_rotation_l	knee_angle_l	ankle_angle_l	subtalar_angle_l	mtp_angle_l	lumbar_extension	lumbar_bending	lumbar_rotation	arm_flex_r	arm_add_r	arm_rot_r	elbow_flex_r	pro_sup_r	wrist_flex_r	wrist_dev_r	arm_flex_l	arm_add_l	arm_rot_l	elbow_flex_l	pro_sup_l	wrist_flex_l	wrist_dev_l
0	3.0285	1.27287	-1.35058	0.688686	-0.187884	0.953469	-0.375142	0.0399507	0.025459	0.159669	-0.253518	0	0	-0.351425	-0.109096	-0.119058	0.186516	-0.216668	0	0	-0.392238	0.146796	-0.067554	0.00229453	-0.44966	0.392674	0.971415	1.5708	0	0	0.09721	-0.281067	0.422343	0.736974	1.5708	0	0
0.01	3.0175	1.29341	-1.33932	0.688663	-0.186602	0.952901	-0.353816	0.0398277	0.0237589	0.157763	-0.256753	0	0	-0.333359	-0.106205	-0.106582	0.178331	-0.220979	0	0	-0.366522	0.14082	-0.0653402	0.0101823	-0.450918	0.42082	0.945353	1.5708	0	0	0.107063	-0.27917	0.447349	0.713119	1.5708	0	0
0.02	3.01734	1.29356	-1.33903	0.688598	-0.186516	0.952897	-0.353849	0.0398394	0.0230954	0.157656	-0.25665	0	0	-0.333318	-0.106104	-0.106469	0.17821	-0.221193	0	0	-0.365927	0.141168	-0.0655293	0.0093947	-0.451265	0.421015	0.944677	1.5708	0	0	0.107447	-0.279477	0.450038	0.712162	1.5708	0	0
0.03	3.01702	1.29349	-1.3386	0.688526	-0.186412	0.952906	-0.354242	0.0399572	0.0226087	0.157298	-0.256617	0	0	-0.333566	-0.106167	-0.106656	0.178108	-0.22133	0	0	-0.365823	0.141643	-0.0658957	0.00869118	-0.451721	0.421422	0.944314	1.5708	0	0	0.107442	-0.279773	0.451672	0.711761	1.5708	0	0
0.04	3.01711	1.29324	-1.33857	0.688448	-0.186322	0.952899	-0.354777	0.0399882	0.0222822	0.156999	-0.256541	0	0	-0.334028	-0.106075	-0.106707	0.177981	-0.221316	0	0	-0.365982	0.141987	-0.0662789	0.00798788	-0.452045	0.421652	0.943896	1.5708	0	0	0.107248	-0.280055	0.452594	0.711774	1.5708	0	0
0.05	3.01791	1.29281	-1.33927	0.68837	-0.186258	0.952898	-0.355336	0.0397796	0.0217789	0.157208	-0.256536	0	0	-0.334711	-0.105898	-0.106978	0.177807	-0.22129	0	0	-0.366446	0.14223	-0.0666713	0.00728662	-0.45236	0.421753	0.943657	1.5708	0	0	0.106997	-0.280355	0.453494	0.71213	1.5708	0	0
0.06	3.01824	1.29213	-1.33953	0.68831	-0.18624	0.952932	-0.356001	0.0397656	0.0215011	0.157524	-0.256595	0	0	-0.335496	-0.105898	-0.107144	0.177841	-0.221234	0	0	-0.367305	0.142667	-0.0669212	0.00660015	-0.452719	0.421637	0.943609	1.5708	0	0	0.106882	-0.280638	0.454409	0.712626	1.5708	0	0
0.07	3.01812	1.29152	-1.33927	0.688245	-0.186212	0.952978	-0.356607	0.0399183	0.0215273	0.157787	-0.256671	0	0	-0.3362	-0.106036	-0.106947	0.177797	-0.221195	0	0	-0.367965	0.143268	-0.0671585	0.00574955	-0.453144	0.421394	0.943592	1.5708	0	0	0.106948	-0.280645	0.455316	0.712525	1.5708	0	0
0.08	3.01821	1.29106	-1.33915	0.68815	-0.186196	0.952995	-0.356899	0.0399365	0.0213855	0.158272	-0.256692	0	0	-0.336647	-0.106089	-0.10677	0.177865	-0.22117	0	0	-0.368486	0.143874	-0.0674472	0.00490051	-0.453629	0.421138	0.943593	1.5708	0	0	0.107004	-0.280465	0.455722	0.712343	1.5708	0	0
0.09	3.0202	1.29052	-1.34086	0.687975	-0.186267	0.953001	-0.357083	0.0392406	0.0207403	0.159259	-0.256586	0	0	-0.336713	-0.105761	-0.108292	0.17892	-0.221182	0	0	-0.369391	0.144144	-0.0678505	0.00434704	-0.454332	0.421057	0.943741	1.5708	0	0	0.107289	-0.280254	0.456255	0.712356	1.5708	0	0
0.1	3.02398	1.28978	-1.34418	0.68768	-0.186401	0.953023	-0.357326	0.0378709	0.019338	0.160795	-0.256162	0	0	-0.335934	-0.105365	-0.113454	0.182538	-0.221003	0	0	-0.370737	0.144209	-0.0684582	0.00389537	-0.45539	0.420914	0.944373	1.5708	0	0	0.107705	-0.279956	0.456881	0.712657	1.5708	0	0
0.11	3.02376	1.28988	-1.34417	0.687536	-0.186363	0.953003	-0.356659	0.0375468	0.0194809	0.16208	-0.255632	0	0	-0.334813	-0.105688	-0.117333	0.185218	-0.220327	0	0	-0.370688	0.144904	-0.0684856	0.00316942	-0.456067	0.42047	0.944485	1.5708	0	0	0.107645	-0.279388	0.457132	0.712384	1.5708	0	0
0.12	3.02293	1.28985	-1.34361	0.687498	-0.186306	0.952977	-0.356169	0.037656	0.0201784	0.163279	-0.254972	0	0	-0.334409	-0.105906	-0.118666	0.186518	-0.219446	0	0	-0.370574	0.145622	-0.0685101	0.00259827	-0.456483	0.420225	0.944322	1.5708	0	0	0.107484	-0.279072	0.457322	0.712245	1.5708	0	0
